<svg width="550" height="191" viewBox="0 0 550 191" fill="none" xmlns="http://www.w3.org/2000/svg">
<path d="M14.2137 13.0864C14.1077 12.1451 13.6702 11.4159 12.9012 10.8989C12.1323 10.3752 11.1645 10.1134 9.99784 10.1134C9.16261 10.1134 8.44007 10.2459 7.83022 10.5111C7.22037 10.7696 6.74642 11.1276 6.40835 11.585C6.07691 12.0357 5.91119 12.5494 5.91119 13.1262C5.91119 13.6101 6.02388 14.0277 6.24926 14.379C6.48126 14.7303 6.78287 15.0253 7.15409 15.2639C7.53193 15.4959 7.93628 15.6915 8.36715 15.8506C8.79803 16.003 9.21232 16.129 9.61005 16.2284L11.5987 16.7455C12.2483 16.9046 12.9145 17.12 13.5973 17.3918C14.28 17.6636 14.9131 18.0215 15.4964 18.4656C16.0797 18.9098 16.5504 19.46 16.9083 20.1162C17.2729 20.7725 17.4552 21.558 17.4552 22.4727C17.4552 23.6262 17.1569 24.6503 16.5603 25.5452C15.9704 26.4401 15.1119 27.146 13.9851 27.6631C12.8648 28.1801 11.5092 28.4387 9.91829 28.4387C8.39367 28.4387 7.07454 28.1967 5.9609 27.7128C4.84727 27.2289 3.97558 26.5428 3.34585 25.6546C2.71611 24.7597 2.3681 23.6991 2.30181 22.4727H5.3842C5.44386 23.2085 5.6825 23.8217 6.10011 24.3122C6.52435 24.7961 7.0646 25.1574 7.72085 25.396C8.38373 25.628 9.10958 25.7441 9.8984 25.7441C10.7668 25.7441 11.539 25.6082 12.2152 25.3364C12.8979 25.058 13.4349 24.6735 13.826 24.183C14.2171 23.6858 14.4126 23.1058 14.4126 22.4429C14.4126 21.8397 14.2403 21.3459 13.8956 20.9614C13.5575 20.5769 13.0968 20.2587 12.5135 20.0068C11.9368 19.7549 11.2838 19.5329 10.5547 19.3406L8.1484 18.6844C6.51772 18.2403 5.22511 17.5873 4.27056 16.7256C3.32265 15.8638 2.84869 14.7237 2.84869 13.3051C2.84869 12.1318 3.16687 11.1077 3.80323 10.2327C4.4396 9.35769 5.30134 8.67824 6.38846 8.19434C7.47558 7.70381 8.70191 7.45854 10.0674 7.45854C11.4462 7.45854 12.6626 7.70049 13.7166 8.18439C14.7772 8.66829 15.6124 9.33449 16.2223 10.183C16.8321 11.0248 17.1503 11.9926 17.1768 13.0864H14.2137ZM27.4705 28.4088C25.9658 28.4088 24.6698 28.0873 23.5827 27.4443C22.5022 26.7947 21.667 25.8833 21.077 24.71C20.4937 23.53 20.202 22.1479 20.202 20.5637C20.202 18.9993 20.4937 17.6205 21.077 16.4273C21.667 15.2341 22.489 14.3028 23.5429 13.6333C24.6035 12.9637 25.8431 12.629 27.2617 12.629C28.1234 12.629 28.9587 12.7715 29.7674 13.0566C30.5761 13.3416 31.3019 13.789 31.9449 14.3989C32.5879 15.0087 33.095 15.8009 33.4662 16.7753C33.8374 17.7431 34.0231 18.9197 34.0231 20.3051V21.3591H21.8824V19.1318H31.1097C31.1097 18.3496 30.9506 17.6569 30.6324 17.0537C30.3142 16.4439 29.8668 15.9633 29.2901 15.6119C28.72 15.2606 28.0505 15.085 27.2816 15.085C26.4463 15.085 25.7172 15.2905 25.0941 15.7014C24.4776 16.1058 24.0003 16.6361 23.6623 17.2923C23.3308 17.942 23.1651 18.6479 23.1651 19.4102V21.1503C23.1651 22.1711 23.3441 23.0395 23.702 23.7554C24.0666 24.4713 24.5737 25.0182 25.2233 25.396C25.873 25.7673 26.632 25.9529 27.5003 25.9529C28.0638 25.9529 28.5775 25.8733 29.0415 25.7142C29.5055 25.5485 29.9066 25.3032 30.2446 24.9784C30.5827 24.6536 30.8412 24.2526 31.0202 23.7753L33.8341 24.2824C33.6088 25.111 33.2044 25.8369 32.6211 26.46C32.0444 27.0764 31.3185 27.557 30.4435 27.9017C29.5751 28.2398 28.5841 28.4088 27.4705 28.4088ZM37.3217 33.8279V12.8279H40.2251V15.3037H40.4737C40.646 14.9855 40.8946 14.6176 41.2194 14.2C41.5442 13.7824 41.995 13.4178 42.5717 13.1063C43.1484 12.7881 43.9107 12.629 44.8586 12.629C46.0916 12.629 47.192 12.9405 48.1598 13.5637C49.1276 14.1868 49.8866 15.085 50.4368 16.2583C50.9936 17.4316 51.272 18.8435 51.272 20.4941C51.272 22.1446 50.9969 23.5599 50.4467 24.7398C49.8965 25.9131 49.1408 26.8179 48.1797 27.4543C47.2185 28.084 46.1214 28.3989 44.8885 28.3989C43.9604 28.3989 43.2014 28.2431 42.6115 27.9316C42.0281 27.62 41.5708 27.2554 41.2393 26.8378C40.9079 26.4202 40.6527 26.049 40.4737 25.7242H40.2947V33.8279H37.3217ZM40.2351 20.4642C40.2351 21.5381 40.3908 22.4794 40.7024 23.2881C41.0139 24.0968 41.4647 24.7298 42.0547 25.1872C42.6446 25.638 43.3672 25.8634 44.2223 25.8634C45.1105 25.8634 45.8529 25.628 46.4495 25.1574C47.0461 24.6801 47.4969 24.0338 47.8018 23.2185C48.1134 22.4031 48.2691 21.4851 48.2691 20.4642C48.2691 19.4566 48.1167 18.5518 47.8118 17.7497C47.5135 16.9476 47.0627 16.3146 46.4595 15.8506C45.8629 15.3866 45.1172 15.1546 44.2223 15.1546C43.3605 15.1546 42.6314 15.3766 42.0348 15.8208C41.4448 16.2649 40.9974 16.8847 40.6924 17.6801C40.3875 18.4756 40.2351 19.4036 40.2351 20.4642ZM61.7322 12.8279V15.2142H53.3899V12.8279H61.7322ZM55.6271 9.16877H58.6001V23.6162C58.6001 24.1929 58.6863 24.6271 58.8586 24.9188C59.031 25.2038 59.253 25.3994 59.5248 25.5054C59.8032 25.6048 60.1048 25.6546 60.4297 25.6546C60.6683 25.6546 60.8771 25.638 61.0561 25.6048C61.2351 25.5717 61.3743 25.5452 61.4737 25.5253L62.0106 27.9813C61.8383 28.0476 61.593 28.1138 61.2748 28.1801C60.9566 28.253 60.5589 28.2928 60.0816 28.2994C59.2994 28.3127 58.5703 28.1735 57.8941 27.8818C57.218 27.5902 56.6711 27.1394 56.2535 26.5296C55.8359 25.9197 55.6271 25.1541 55.6271 24.2327V9.16877ZM66.9797 28.2895C66.4362 28.2895 65.9688 28.0973 65.5777 27.7128C65.1866 27.3217 64.9911 26.8511 64.9911 26.3009C64.9911 25.7573 65.1866 25.2933 65.5777 24.9088C65.9688 24.5177 66.4362 24.3222 66.9797 24.3222C67.5233 24.3222 67.9906 24.5177 68.3817 24.9088C68.7728 25.2933 68.9684 25.7573 68.9684 26.3009C68.9684 26.6655 68.8756 27.0002 68.69 27.3051C68.511 27.6034 68.2723 27.8421 67.974 28.021C67.6757 28.2 67.3443 28.2895 66.9797 28.2895ZM87.7187 7.73695V28.1006H84.6363V10.8193H84.517L79.6449 14.0012V11.058L84.7258 7.73695H87.7187ZM100.953 7.73695V28.1006H97.8707V10.8193H97.7514L92.8792 14.0012V11.058L97.9602 7.73695H100.953ZM113.631 12.8279V15.2142H105.288V12.8279H113.631ZM107.526 9.16877H110.499V23.6162C110.499 24.1929 110.585 24.6271 110.757 24.9188C110.929 25.2038 111.151 25.3994 111.423 25.5054C111.702 25.6048 112.003 25.6546 112.328 25.6546C112.567 25.6546 112.776 25.638 112.955 25.6048C113.133 25.5717 113.273 25.5452 113.372 25.5253L113.909 27.9813C113.737 28.0476 113.491 28.1138 113.173 28.1801C112.855 28.253 112.457 28.2928 111.98 28.2994C111.198 28.3127 110.469 28.1735 109.793 27.8818C109.116 27.5902 108.57 27.1394 108.152 26.5296C107.734 25.9197 107.526 25.1541 107.526 24.2327V9.16877ZM120.22 19.0324V28.1006H117.247V7.73695H120.181V15.3137H120.37C120.728 14.4917 121.274 13.8387 122.01 13.3548C122.746 12.8709 123.707 12.629 124.894 12.629C125.941 12.629 126.856 12.8444 127.638 13.2753C128.427 13.7062 129.037 14.3492 129.468 15.2043C129.905 16.0528 130.124 17.1134 130.124 18.3861V28.1006H127.151V18.7441C127.151 17.6238 126.863 16.7554 126.286 16.1389C125.709 15.5158 124.907 15.2043 123.88 15.2043C123.177 15.2043 122.547 15.3534 121.99 15.6517C121.44 15.95 121.006 16.3875 120.688 16.9642C120.376 17.5343 120.22 18.2237 120.22 19.0324ZM141.462 28.1006V25.8733L148.352 18.7341C149.088 17.9585 149.695 17.2791 150.172 16.6958C150.656 16.1058 151.017 15.5457 151.256 15.0154C151.494 14.4851 151.614 13.9216 151.614 13.325C151.614 12.6489 151.455 12.0655 151.136 11.575C150.818 11.0779 150.384 10.6967 149.834 10.4316C149.284 10.1598 148.664 10.0239 147.974 10.0239C147.245 10.0239 146.609 10.173 146.065 10.4713C145.522 10.7696 145.104 11.1905 144.812 11.7341C144.521 12.2777 144.375 12.914 144.375 13.6432H141.442C141.442 12.4036 141.727 11.3198 142.297 10.3918C142.867 9.46375 143.649 8.74452 144.643 8.23411C145.638 7.71706 146.768 7.45854 148.034 7.45854C149.313 7.45854 150.44 7.71375 151.415 8.22416C152.396 8.72795 153.161 9.41735 153.712 10.2923C154.262 11.1607 154.537 12.1418 154.537 13.2355C154.537 13.9912 154.394 14.7303 154.109 15.4529C153.831 16.1754 153.344 16.9808 152.648 17.8691C151.952 18.7507 150.984 19.8212 149.744 21.0807L145.697 25.3165V25.4656H154.865V28.1006H141.462ZM165.723 28.4387C164.152 28.432 162.81 28.0177 161.696 27.1958C160.582 26.3738 159.731 25.1773 159.141 23.6063C158.551 22.0352 158.256 20.1427 158.256 17.9287C158.256 15.7213 158.551 13.8354 159.141 12.271C159.737 10.7066 160.592 9.51346 161.706 8.6915C162.826 7.86952 164.165 7.45854 165.723 7.45854C167.281 7.45854 168.616 7.87284 169.73 8.70144C170.844 9.52341 171.696 10.7166 172.285 12.281C172.882 13.8387 173.18 15.7213 173.18 17.9287C173.18 20.1494 172.885 22.0452 172.295 23.6162C171.705 25.1806 170.854 26.3771 169.74 27.2057C168.626 28.0277 167.287 28.4387 165.723 28.4387ZM165.723 25.7838C167.102 25.7838 168.179 25.111 168.955 23.7654C169.737 22.4197 170.128 20.4742 170.128 17.9287C170.128 16.2384 169.949 14.8099 169.591 13.6432C169.24 12.4699 168.732 11.5816 168.07 10.9784C167.413 10.3686 166.631 10.0637 165.723 10.0637C164.351 10.0637 163.274 10.7398 162.491 12.0921C161.709 13.4443 161.315 15.3899 161.308 17.9287C161.308 19.6257 161.484 21.0608 161.835 22.2341C162.193 23.4008 162.7 24.2857 163.357 24.8889C164.013 25.4855 164.802 25.7838 165.723 25.7838ZM176.708 28.1006V25.8733L183.598 18.7341C184.334 17.9585 184.941 17.2791 185.418 16.6958C185.902 16.1058 186.263 15.5457 186.502 15.0154C186.74 14.4851 186.86 13.9216 186.86 13.325C186.86 12.6489 186.701 12.0655 186.382 11.575C186.064 11.0779 185.63 10.6967 185.08 10.4316C184.53 10.1598 183.91 10.0239 183.22 10.0239C182.491 10.0239 181.855 10.173 181.311 10.4713C180.768 10.7696 180.35 11.1905 180.059 11.7341C179.767 12.2777 179.621 12.914 179.621 13.6432H176.688C176.688 12.4036 176.973 11.3198 177.543 10.3918C178.113 9.46375 178.895 8.74452 179.89 8.23411C180.884 7.71706 182.014 7.45854 183.28 7.45854C184.56 7.45854 185.686 7.71375 186.661 8.22416C187.642 8.72795 188.408 9.41735 188.958 10.2923C189.508 11.1607 189.783 12.1418 189.783 13.2355C189.783 13.9912 189.64 14.7303 189.355 15.4529C189.077 16.1754 188.59 16.9808 187.894 17.8691C187.198 18.7507 186.23 19.8212 184.99 21.0807L180.944 25.3165V25.4656H190.111V28.1006H176.708ZM193.015 24.1233V21.6375L201.814 7.73695H203.773V11.396H202.53L196.236 21.3591V21.5182H208.297V24.1233H193.015ZM202.669 28.1006V23.3676L202.689 22.2341V7.73695H205.603V28.1006H202.669ZM214.904 25.3165L214.755 26.4003C214.656 27.1958 214.487 28.0244 214.248 28.8861C214.016 29.7545 213.774 30.5599 213.522 31.3023C213.277 32.0447 213.075 32.6347 212.916 33.0722H210.808C210.894 32.6612 211.013 32.1044 211.166 31.4017C211.318 30.7057 211.467 29.9268 211.613 29.0651C211.759 28.2033 211.868 27.325 211.941 26.4301L212.041 25.3165H214.904ZM226.424 28.1006V7.73695H229.496V17.4614H229.745L238.286 7.73695H242.154L233.941 16.9046L242.184 28.1006H238.485L231.902 19.0026L229.496 21.7668V28.1006H226.424ZM250.24 28.4088C248.735 28.4088 247.439 28.0873 246.352 27.4443C245.272 26.7947 244.437 25.8833 243.847 24.71C243.263 23.53 242.972 22.1479 242.972 20.5637C242.972 18.9993 243.263 17.6205 243.847 16.4273C244.437 15.2341 245.258 14.3028 246.312 13.6333C247.373 12.9637 248.613 12.629 250.031 12.629C250.893 12.629 251.728 12.7715 252.537 13.0566C253.346 13.3416 254.071 13.789 254.714 14.3989C255.357 15.0087 255.865 15.8009 256.236 16.7753C256.607 17.7431 256.793 18.9197 256.793 20.3051V21.3591H244.652V19.1318H253.879C253.879 18.3496 253.72 17.6569 253.402 17.0537C253.084 16.4439 252.636 15.9633 252.06 15.6119C251.49 15.2606 250.82 15.085 250.051 15.085C249.216 15.085 248.487 15.2905 247.864 15.7014C247.247 16.1058 246.77 16.6361 246.432 17.2923C246.1 17.942 245.935 18.6479 245.935 19.4102V21.1503C245.935 22.1711 246.114 23.0395 246.472 23.7554C246.836 24.4713 247.343 25.0182 247.993 25.396C248.642 25.7673 249.401 25.9529 250.27 25.9529C250.833 25.9529 251.347 25.8733 251.811 25.7142C252.275 25.5485 252.676 25.3032 253.014 24.9784C253.352 24.6536 253.611 24.2526 253.79 23.7753L256.604 24.2824C256.378 25.111 255.974 25.8369 255.391 26.46C254.814 27.0764 254.088 27.557 253.213 27.9017C252.345 28.2398 251.354 28.4088 250.24 28.4088ZM263.064 19.0324V28.1006H260.091V12.8279H262.945V15.3137H263.134C263.485 14.5049 264.035 13.8553 264.784 13.3648C265.54 12.8743 266.491 12.629 267.638 12.629C268.679 12.629 269.59 12.8477 270.372 13.2852C271.155 13.7161 271.761 14.3591 272.192 15.2142C272.623 16.0693 272.838 17.1266 272.838 18.3861V28.1006H269.865V18.7441C269.865 17.637 269.577 16.772 269 16.1489C268.424 15.5191 267.631 15.2043 266.624 15.2043C265.935 15.2043 265.321 15.3534 264.784 15.6517C264.254 15.95 263.833 16.3875 263.522 16.9642C263.217 17.5343 263.064 18.2237 263.064 19.0324ZM278.158 33.8279C277.714 33.8279 277.31 33.7914 276.945 33.7185C276.58 33.6522 276.309 33.5793 276.13 33.4997L276.845 31.0637C277.389 31.2095 277.873 31.2725 278.297 31.2526C278.721 31.2327 279.096 31.0736 279.421 30.7753C279.752 30.477 280.044 29.9898 280.296 29.3137L280.664 28.2994L275.076 12.8279H278.257L282.125 24.6801H282.284L286.152 12.8279H289.344L283.05 30.1389C282.758 30.9344 282.387 31.6072 281.936 32.1574C281.486 32.7142 280.949 33.1318 280.326 33.4102C279.703 33.6887 278.98 33.8279 278.158 33.8279ZM296.145 28.4387C295.177 28.4387 294.302 28.2597 293.52 27.9017C292.738 27.5371 292.118 27.0102 291.661 26.3208C291.21 25.6314 290.985 24.7862 290.985 23.7852C290.985 22.9235 291.15 22.2142 291.482 21.6574C291.813 21.1006 292.261 20.6598 292.824 20.335C293.388 20.0102 294.017 19.7649 294.713 19.5992C295.409 19.4334 296.119 19.3075 296.841 19.2213C297.756 19.1153 298.498 19.0291 299.069 18.9628C299.639 18.8899 300.053 18.7739 300.311 18.6148C300.57 18.4557 300.699 18.1972 300.699 17.8392V17.7696C300.699 16.9012 300.454 16.2284 299.963 15.7512C299.479 15.2739 298.757 15.0352 297.796 15.0352C296.795 15.0352 296.006 15.2573 295.429 15.7014C294.859 16.1389 294.465 16.6262 294.246 17.1631L291.452 16.5267C291.783 15.5987 292.267 14.8496 292.904 14.2796C293.547 13.7029 294.286 13.2852 295.121 13.0267C295.956 12.7616 296.835 12.629 297.756 12.629C298.366 12.629 299.012 12.7019 299.695 12.8477C300.384 12.9869 301.027 13.2455 301.624 13.6233C302.227 14.0012 302.721 14.5414 303.105 15.2441C303.49 15.9401 303.682 16.8449 303.682 17.9585V28.1006H300.779V26.0125H300.659C300.467 26.397 300.179 26.7748 299.794 27.146C299.41 27.5173 298.916 27.8255 298.313 28.0708C297.71 28.316 296.987 28.4387 296.145 28.4387ZM296.792 26.0523C297.613 26.0523 298.316 25.8899 298.899 25.5651C299.489 25.2403 299.937 24.816 300.242 24.2923C300.553 23.762 300.709 23.1953 300.709 22.5921V20.6233C300.603 20.7294 300.398 20.8288 300.093 20.9216C299.794 21.0078 299.453 21.084 299.069 21.1503C298.684 21.21 298.31 21.2663 297.945 21.3193C297.58 21.3657 297.275 21.4055 297.03 21.4387C296.453 21.5116 295.926 21.6342 295.449 21.8066C294.979 21.9789 294.601 22.2275 294.316 22.5523C294.037 22.8705 293.898 23.2947 293.898 23.825C293.898 24.5608 294.17 25.1176 294.713 25.4955C295.257 25.8667 295.95 26.0523 296.792 26.0523Z" fill="black"/>
<path d="M368.875 178.961C354.403 178.961 345.023 169.38 345.023 155.578C345.023 141.307 354.738 131.525 369.411 131.525C377.183 131.525 381.337 134.272 382.61 134.272C383.414 134.272 383.682 133.669 383.95 132.128H386.563V146.667H383.816C382.141 138.024 377.25 134.272 369.411 134.272C358.49 134.272 351.589 141.977 351.589 155.377C351.589 168.174 358.155 176.214 369.143 176.214C377.25 176.214 381.002 173.467 381.002 168.71V163.819C381.002 159.598 379.93 158.995 371.287 158.727V156.315H391.119V158.727C387.501 158.928 386.563 160 386.563 164.958V173.601C382.811 176.348 377.518 178.961 368.875 178.961ZM424.782 170.653L426.591 171.189C425.854 175.745 424.648 178.693 420.36 178.693C417.278 178.693 414.933 176.817 414.665 172.529C412.655 176.75 409.104 178.961 405.352 178.961C400.662 178.961 397.446 176.214 397.446 171.792C397.446 167.102 400.863 164.69 406.759 162.747L414.665 160.201V156.985C414.665 151.29 412.119 148.811 407.362 148.811C404.883 148.811 402.471 149.682 400.93 150.687C401.332 153.635 404.012 154.104 404.012 156.784C404.012 158.794 402.404 160.335 400.327 160.335C397.915 160.335 396.374 158.459 396.374 155.779C396.374 150.218 403.141 145.461 409.305 145.461C415.268 145.461 419.556 148.543 419.556 156.181V171.323C419.556 174.003 420.293 174.74 421.7 174.74C423.308 174.74 424.112 173.534 424.782 170.653ZM407.295 174.874C409.841 174.874 412.588 173.266 414.665 169.38V162.814L408.97 164.824C405.017 166.231 402.739 167.571 402.739 170.653C402.739 173.333 404.414 174.874 407.295 174.874ZM449.379 171.658L450.652 172.864C448.039 176.817 445.694 178.693 441.942 178.693C436.984 178.693 434.103 175.477 434.103 169.983V150.687H428.006V148.342C432.897 147.739 435.711 145.327 436.515 140.637H438.994V146.265H448.575V150.687H438.994V168.911C438.994 172.529 440.736 174.472 443.55 174.472C445.761 174.472 447.57 173.601 449.379 171.658ZM483.409 156.583V171.39C483.409 175.142 484.012 175.879 488.032 176.214V178.023H473.694V176.214C477.915 175.879 478.518 175.276 478.518 171.39V157.722C478.518 152.63 476.173 149.95 471.952 149.95C468.803 149.95 466.257 151.357 463.577 154.506V171.524C463.577 175.343 464.247 175.879 468.2 176.214V178.023H453.862V176.214C457.614 175.879 458.686 175.343 458.686 171.524V138.493C458.686 135.009 457.949 134.339 453.862 134.339V132.798L462.103 130.453H463.577V151.893C465.922 147.739 469.339 145.461 473.694 145.461C479.791 145.461 483.409 149.414 483.409 156.583ZM519.013 158.727H497.439C497.372 159.397 497.372 160.067 497.372 160.804C497.372 168.777 501.593 173.4 507.824 173.4C512.246 173.4 515.395 171.122 516.802 167.638L518.678 168.174C517.204 175.075 513.787 178.961 506.886 178.961C498.176 178.961 492.682 172.663 492.682 162.68C492.682 152.362 498.243 145.461 506.953 145.461C514.792 145.461 519.08 150.62 519.013 158.727ZM506.417 147.94C502.397 147.94 499.047 150.754 497.841 156.181H513.519C513.519 151.558 511.576 147.94 506.417 147.94ZM542.702 145.461C545.248 145.461 547.191 147.203 547.191 149.615C547.191 152.027 545.449 153.702 543.439 153.702C540.893 153.702 540.893 151.022 538.95 150.218C537.208 151.826 535.131 154.975 533.456 160.335V171.39C533.456 175.276 534.193 175.879 539.486 176.214V178.023H523.741V176.214C527.828 175.879 528.565 175.075 528.565 171.39V153.903C528.565 150.084 527.761 149.414 523.741 149.414V147.873L531.781 145.863H533.456V156.114C535.131 151.089 538.682 145.461 542.702 145.461Z" fill="#231F20"/>
<path fill-rule="evenodd" clip-rule="evenodd" d="M58.5099 50.1136H0.869995V108.118H58.5099V87.8624H48.9423C45.6445 95.2531 38.2277 100.389 29.729 100.389C18.0238 100.389 8.53446 90.7692 8.53446 79.0639C8.53446 67.3587 18.0238 57.8172 29.729 57.8172C38.3842 57.8172 45.814 63.1354 49.1118 70.6825H58.5099V50.1006V50.1136ZM114.338 87.8754C110.962 95.2662 103.623 100.402 95.0464 100.402C83.6671 100.402 74.3472 91.2775 73.9301 79.8981H123.905V50.1006H66.2656V108.105H123.905V87.8494H114.338V87.8754ZM115.068 72.7681H74.8295C77.3843 63.2266 85.883 57.8302 95.0334 57.8302C104.184 57.8302 112.109 62.8877 115.068 72.7681ZM248.375 79.077C248.375 90.8604 238.977 100.402 227.258 100.402C215.54 100.402 206.142 90.7692 206.142 79.077C206.142 67.3847 215.54 57.8302 227.258 57.8302C238.977 57.8302 248.375 67.2935 248.375 79.077ZM256.117 50.1136H198.478V108.118H256.117V50.1136ZM181.702 87.8754H191.269V108.132H131.57V50.1267H141.294V79.09C141.294 92.0336 150.861 100.337 162.241 100.337C171.065 100.337 178.821 95.5269 181.702 87.8885V87.8754Z" fill="#231F20"/>
<path d="M301.57 87.1977C309.612 94.5102 319.832 99.4634 331.133 100.988V108.132H273.128V50.1267H283.634C284.364 61.0499 288.261 71.0867 294.427 79.3377L323.625 50.1267L331.12 57.6217L301.557 87.1977H301.57Z" fill="#231F20"/>
<path d="M223.713 144.955C215.67 137.642 205.451 132.689 194.15 131.164V124.021H252.155V182.026H241.649C240.919 171.103 237.021 161.066 230.856 152.815L201.658 182.026L194.163 174.531L223.726 144.955H223.713Z" fill="#231F20"/>
<path d="M291.807 152.476C284.494 160.518 279.541 170.738 278.016 182.039H270.873V124.034H328.878V134.54C317.955 135.27 307.918 139.167 299.667 145.333L328.878 174.531L321.383 182.026L291.807 152.463V152.476Z" fill="#231F20"/>
</svg>
