<svg width="59" height="17" viewBox="0 0 59 17" fill="none" xmlns="http://www.w3.org/2000/svg">
<path d="M7.10138 4.2925H8.6994L11.4778 11.0766H11.5801L14.3585 4.2925H15.9565V13.0198H14.7037V6.70443H14.6227L12.0488 13.007H11.0091L8.43519 6.70017H8.35423V13.0198H7.10138V4.2925ZM20.5897 13.1519C19.9448 13.1519 19.3894 13.0141 18.9235 12.7385C18.4604 12.4601 18.1025 12.0695 17.8496 11.5667C17.5996 11.061 17.4746 10.4686 17.4746 9.78966C17.4746 9.11921 17.5996 8.5283 17.8496 8.01693C18.1025 7.50557 18.4547 7.10642 18.9064 6.81949C19.361 6.53256 19.8922 6.38909 20.5002 6.38909C20.8695 6.38909 21.2275 6.45017 21.574 6.57233C21.9206 6.69449 22.2317 6.88625 22.5073 7.14762C22.7828 7.40898 23.0002 7.74847 23.1593 8.16608C23.3184 8.58085 23.3979 9.08512 23.3979 9.67887V10.1306H18.1948V9.17603H22.1493C22.1493 8.8408 22.0811 8.54392 21.9448 8.2854C21.8084 8.02404 21.6167 7.81807 21.3695 7.6675C21.1252 7.51693 20.8382 7.44165 20.5087 7.44165C20.1507 7.44165 19.8382 7.52972 19.5712 7.70585C19.307 7.87915 19.1025 8.10642 18.9576 8.38767C18.8155 8.66608 18.7445 8.96864 18.7445 9.29534V10.0411C18.7445 10.4786 18.8212 10.8507 18.9746 11.1576C19.1309 11.4644 19.3482 11.6988 19.6266 11.8607C19.905 12.0198 20.2303 12.0993 20.6025 12.0993C20.8439 12.0993 21.0641 12.0652 21.263 11.997C21.4618 11.926 21.6337 11.8209 21.7786 11.6817C21.9235 11.5425 22.0343 11.3706 22.111 11.1661L23.3169 11.3834C23.2203 11.7385 23.0471 12.0496 22.7971 12.3167C22.5499 12.5809 22.2388 12.7868 21.8638 12.9345C21.4917 13.0794 21.0669 13.1519 20.5897 13.1519ZM26.0858 9.13341V13.0198H24.8116V6.47432H26.0346V7.53966H26.1156C26.2662 7.19307 26.502 6.91466 26.823 6.70443C27.1468 6.49421 27.5545 6.38909 28.046 6.38909C28.492 6.38909 28.8826 6.48284 29.2179 6.67034C29.5531 6.855 29.813 7.13057 29.9977 7.49705C30.1824 7.86353 30.2747 8.31665 30.2747 8.85642V13.0198H29.0005V9.00983C29.0005 8.5354 28.877 8.16466 28.6298 7.89762C28.3826 7.62773 28.0431 7.49279 27.6113 7.49279C27.3159 7.49279 27.0531 7.55671 26.823 7.68455C26.5957 7.81239 26.4153 7.99989 26.2818 8.24705C26.1511 8.49137 26.0858 8.78682 26.0858 9.13341ZM36.1298 10.3053V6.47432H37.4082V13.0198H36.1554V11.8863H36.0872C35.9366 12.2357 35.6951 12.5269 35.3627 12.7598C35.0332 12.9899 34.6227 13.105 34.1312 13.105C33.7108 13.105 33.3386 13.0127 33.0147 12.828C32.6937 12.6405 32.4409 12.3635 32.2562 11.997C32.0744 11.6306 31.9835 11.1774 31.9835 10.6377V6.47432H33.2576V10.4843C33.2576 10.9303 33.3812 11.2854 33.6284 11.5496C33.8755 11.8138 34.1966 11.9459 34.5914 11.9459C34.8301 11.9459 35.0673 11.8863 35.3031 11.7669C35.5417 11.6476 35.7392 11.4672 35.8954 11.2257C36.0545 10.9843 36.1326 10.6774 36.1298 10.3053Z" fill="black"/>
<rect x="42.8748" y="0.605225" width="5.27635" height="5.27635" fill="black"/>
<rect x="42.8748" y="11.1582" width="5.27635" height="5.27635" fill="black"/>
<rect x="53.4268" y="0.605225" width="5.27635" height="5.27635" fill="black"/>
<rect x="53.4268" y="11.1582" width="5.27635" height="5.27635" fill="black"/>
</svg>
