<svg xmlns="http://www.w3.org/2000/svg" width="127" height="30" fill="none" viewBox="0 0 127 30"><g clip-path="url(#a)"><path fill="#07b966" fill-rule="evenodd" d="M66.69.116v13.103q1.96-2.924 6.348-2.924 2.466 0 4.443 1.163t3.12 3.31q1.141 2.15 1.141 4.967 0 2.536-1.123 4.685a9.06 9.06 0 0 1-3.174 3.47q-2.05 1.32-4.588 1.32-2.032 0-3.682-.775-1.65-.774-2.594-2.219l-.036 2.43h-4.026V.116zm-41.466 5.46 6.917 6.897a9.2 9.2 0 0 1 2.034 2.348q1.324 2.167 1.324 4.914 0 2.572-1.234 4.72-1.233 2.149-3.481 3.452-2.25 1.303-5.042 1.303-2.685 0-4.897-1.18a9.05 9.05 0 0 1-3.536-3.364q-1.324-2.184-1.324-4.931 0-2.535 1.233-4.684t3.482-3.452a9.6 9.6 0 0 1 4.006-1.257l-4.783-4.767zm24.71 4.72q3.3-.001 5.06 1.954 1.758 1.956 1.759 5.618v10.778h-4.171V18.608q0-2.395-.925-3.557-.925-1.163-2.847-1.163-2.104 0-3.265 1.339-1.16 1.338-1.16 3.733v9.686h-4.171V10.86h3.99l.036 2.29q.761-1.373 2.248-2.114t3.446-.74m46.244 0q3.3-.001 5.06 1.954 1.758 1.956 1.759 5.618v10.778h-4.171V18.608q0-2.395-.925-3.557-.926-1.163-2.847-1.163-2.104 0-3.265 1.339-1.16 1.338-1.16 3.733v9.686h-4.172V10.86h3.99l.037 2.29q.76-1.373 2.248-2.114t3.446-.74M112.935.115v17.576l7.399-6.833h5.223l-8.777 7.855 10.155 9.932h-5.513l-8.487-8.453v8.453h-4.171V.116zm-102.056.3q1.035 0 2.123.19t1.837.537l-.428 3.325a9.1 9.1 0 0 0-3.103-.554q-1.963 0-2.854 1.247-.892 1.247-.892 3.95v2.043h5.208v3.36H7.562v14.133H3.46V14.513H0v-3.36h3.46v-2.46q0-3.983 1.908-6.13Q7.277.414 10.88.414m14.863 13.508q-2.43 0-3.99 1.62t-1.56 4.192q0 2.57 1.542 4.21 1.54 1.637 4.008 1.637 2.466 0 4.008-1.638 1.54-1.638 1.541-4.21 0-2.57-1.56-4.19t-3.99-1.62m46.244 0q-2.467 0-4.008 1.638-1.542 1.638-1.541 4.21 0 2.57 1.56 4.19 1.557 1.621 3.99 1.621 2.428 0 3.99-1.62 1.558-1.62 1.559-4.192t-1.542-4.209-4.008-1.638" clip-rule="evenodd"/></g><defs><clipPath id="a"><path fill="#fff" d="M0 0h127v29.21H0z"/></clipPath></defs></svg>