<svg width="550" height="191" viewBox="0 0 550 191" fill="none" xmlns="http://www.w3.org/2000/svg">
<path d="M14.2137 13.0864C14.1077 12.1451 13.6702 11.4159 12.9012 10.8989C12.1323 10.3752 11.1645 10.1134 9.99784 10.1134C9.16261 10.1134 8.44007 10.2459 7.83022 10.5111C7.22037 10.7696 6.74642 11.1276 6.40835 11.585C6.07691 12.0357 5.91119 12.5494 5.91119 13.1262C5.91119 13.6101 6.02388 14.0277 6.24926 14.379C6.48126 14.7303 6.78287 15.0253 7.15409 15.2639C7.53193 15.4959 7.93628 15.6915 8.36715 15.8506C8.79803 16.003 9.21232 16.129 9.61005 16.2284L11.5987 16.7455C12.2483 16.9046 12.9145 17.12 13.5973 17.3918C14.28 17.6636 14.9131 18.0215 15.4964 18.4656C16.0797 18.9098 16.5504 19.46 16.9083 20.1162C17.2729 20.7725 17.4552 21.558 17.4552 22.4727C17.4552 23.6262 17.1569 24.6503 16.5603 25.5452C15.9704 26.4401 15.1119 27.146 13.9851 27.6631C12.8648 28.1801 11.5092 28.4387 9.91829 28.4387C8.39367 28.4387 7.07454 28.1967 5.9609 27.7128C4.84727 27.2289 3.97558 26.5428 3.34585 25.6546C2.71611 24.7597 2.3681 23.6991 2.30181 22.4727H5.3842C5.44386 23.2085 5.6825 23.8217 6.10011 24.3122C6.52435 24.7961 7.0646 25.1574 7.72085 25.396C8.38373 25.628 9.10958 25.7441 9.8984 25.7441C10.7668 25.7441 11.539 25.6082 12.2152 25.3364C12.8979 25.058 13.4349 24.6735 13.826 24.183C14.2171 23.6858 14.4126 23.1058 14.4126 22.4429C14.4126 21.8397 14.2403 21.3459 13.8956 20.9614C13.5575 20.5769 13.0968 20.2587 12.5135 20.0068C11.9368 19.7549 11.2838 19.5329 10.5547 19.3406L8.1484 18.6844C6.51772 18.2403 5.22511 17.5873 4.27056 16.7256C3.32265 15.8638 2.84869 14.7237 2.84869 13.3051C2.84869 12.1318 3.16687 11.1077 3.80323 10.2327C4.4396 9.35769 5.30134 8.67824 6.38846 8.19434C7.47558 7.70381 8.70191 7.45854 10.0674 7.45854C11.4462 7.45854 12.6626 7.70049 13.7166 8.18439C14.7772 8.66829 15.6124 9.33449 16.2223 10.183C16.8321 11.0248 17.1503 11.9926 17.1768 13.0864H14.2137ZM27.4705 28.4088C25.9658 28.4088 24.6698 28.0873 23.5827 27.4443C22.5022 26.7947 21.667 25.8833 21.077 24.71C20.4937 23.53 20.202 22.1479 20.202 20.5637C20.202 18.9993 20.4937 17.6205 21.077 16.4273C21.667 15.2341 22.489 14.3028 23.5429 13.6333C24.6035 12.9637 25.8431 12.629 27.2617 12.629C28.1234 12.629 28.9587 12.7715 29.7674 13.0566C30.5761 13.3416 31.3019 13.789 31.9449 14.3989C32.5879 15.0087 33.095 15.8009 33.4662 16.7753C33.8374 17.7431 34.0231 18.9197 34.0231 20.3051V21.3591H21.8824V19.1318H31.1097C31.1097 18.3496 30.9506 17.6569 30.6324 17.0537C30.3142 16.4439 29.8668 15.9633 29.2901 15.6119C28.72 15.2606 28.0505 15.085 27.2816 15.085C26.4463 15.085 25.7172 15.2905 25.0941 15.7014C24.4776 16.1058 24.0003 16.6361 23.6623 17.2923C23.3308 17.942 23.1651 18.6479 23.1651 19.4102V21.1503C23.1651 22.1711 23.3441 23.0395 23.702 23.7554C24.0666 24.4713 24.5737 25.0182 25.2233 25.396C25.873 25.7673 26.632 25.9529 27.5003 25.9529C28.0638 25.9529 28.5775 25.8733 29.0415 25.7142C29.5055 25.5485 29.9066 25.3032 30.2446 24.9784C30.5827 24.6536 30.8412 24.2526 31.0202 23.7753L33.8341 24.2824C33.6088 25.111 33.2044 25.8369 32.6211 26.46C32.0444 27.0764 31.3185 27.557 30.4435 27.9017C29.5751 28.2398 28.5841 28.4088 27.4705 28.4088ZM37.3217 33.8279V12.8279H40.2251V15.3037H40.4737C40.646 14.9855 40.8946 14.6176 41.2194 14.2C41.5442 13.7824 41.995 13.4178 42.5717 13.1063C43.1484 12.7881 43.9107 12.629 44.8586 12.629C46.0916 12.629 47.192 12.9405 48.1598 13.5637C49.1276 14.1868 49.8866 15.085 50.4368 16.2583C50.9936 17.4316 51.272 18.8435 51.272 20.4941C51.272 22.1446 50.9969 23.5599 50.4467 24.7398C49.8965 25.9131 49.1408 26.8179 48.1797 27.4543C47.2185 28.084 46.1214 28.3989 44.8885 28.3989C43.9604 28.3989 43.2014 28.2431 42.6115 27.9316C42.0281 27.62 41.5708 27.2554 41.2393 26.8378C40.9079 26.4202 40.6527 26.049 40.4737 25.7242H40.2947V33.8279H37.3217ZM40.2351 20.4642C40.2351 21.5381 40.3908 22.4794 40.7024 23.2881C41.0139 24.0968 41.4647 24.7298 42.0547 25.1872C42.6446 25.638 43.3672 25.8634 44.2223 25.8634C45.1105 25.8634 45.8529 25.628 46.4495 25.1574C47.0461 24.6801 47.4969 24.0338 47.8018 23.2185C48.1134 22.4031 48.2691 21.4851 48.2691 20.4642C48.2691 19.4566 48.1167 18.5518 47.8118 17.7497C47.5135 16.9476 47.0627 16.3146 46.4595 15.8506C45.8629 15.3866 45.1172 15.1546 44.2223 15.1546C43.3605 15.1546 42.6314 15.3766 42.0348 15.8208C41.4448 16.2649 40.9974 16.8847 40.6924 17.6801C40.3875 18.4756 40.2351 19.4036 40.2351 20.4642ZM61.7322 12.8279V15.2142H53.3899V12.8279H61.7322ZM55.6271 9.16877H58.6001V23.6162C58.6001 24.1929 58.6863 24.6271 58.8586 24.9188C59.031 25.2038 59.253 25.3994 59.5248 25.5054C59.8032 25.6048 60.1048 25.6546 60.4297 25.6546C60.6683 25.6546 60.8771 25.638 61.0561 25.6048C61.2351 25.5717 61.3743 25.5452 61.4737 25.5253L62.0106 27.9813C61.8383 28.0476 61.593 28.1138 61.2748 28.1801C60.9566 28.253 60.5589 28.2928 60.0816 28.2994C59.2994 28.3127 58.5703 28.1735 57.8941 27.8818C57.218 27.5902 56.6711 27.1394 56.2535 26.5296C55.8359 25.9197 55.6271 25.1541 55.6271 24.2327V9.16877ZM66.9797 28.2895C66.4362 28.2895 65.9688 28.0973 65.5777 27.7128C65.1866 27.3217 64.9911 26.8511 64.9911 26.3009C64.9911 25.7573 65.1866 25.2933 65.5777 24.9088C65.9688 24.5177 66.4362 24.3222 66.9797 24.3222C67.5233 24.3222 67.9906 24.5177 68.3817 24.9088C68.7728 25.2933 68.9684 25.7573 68.9684 26.3009C68.9684 26.6655 68.8756 27.0002 68.69 27.3051C68.511 27.6034 68.2723 27.8421 67.974 28.021C67.6757 28.2 67.3443 28.2895 66.9797 28.2895ZM87.7187 7.73695V28.1006H84.6363V10.8193H84.517L79.6449 14.0012V11.058L84.7258 7.73695H87.7187ZM100.317 28.4387C98.7457 28.432 97.4034 28.0177 96.2897 27.1958C95.1761 26.3738 94.3243 25.1773 93.7343 23.6063C93.1444 22.0352 92.8494 20.1427 92.8494 17.9287C92.8494 15.7213 93.1444 13.8354 93.7343 12.271C94.3309 10.7066 95.186 9.51346 96.2997 8.6915C97.4199 7.86952 98.759 7.45854 100.317 7.45854C101.874 7.45854 103.21 7.87284 104.324 8.70144C105.437 9.52341 106.289 10.7166 106.879 12.281C107.476 13.8387 107.774 15.7213 107.774 17.9287C107.774 20.1494 107.479 22.0452 106.889 23.6162C106.299 25.1806 105.447 26.3771 104.334 27.2057C103.22 28.0277 101.881 28.4387 100.317 28.4387ZM100.317 25.7838C101.696 25.7838 102.773 25.111 103.548 23.7654C104.33 22.4197 104.722 20.4742 104.722 17.9287C104.722 16.2384 104.543 14.8099 104.185 13.6432C103.833 12.4699 103.326 11.5816 102.663 10.9784C102.007 10.3686 101.225 10.0637 100.317 10.0637C98.9446 10.0637 97.8674 10.7398 97.0852 12.0921C96.303 13.4443 95.9086 15.3899 95.902 17.9287C95.902 19.6257 96.0776 21.0608 96.4289 22.2341C96.7869 23.4008 97.294 24.2857 97.9503 24.8889C98.6065 25.4855 99.3953 25.7838 100.317 25.7838ZM118.47 12.8279V15.2142H110.128V12.8279H118.47ZM112.365 9.16877H115.338V23.6162C115.338 24.1929 115.425 24.6271 115.597 24.9188C115.769 25.2038 115.991 25.3994 116.263 25.5054C116.542 25.6048 116.843 25.6546 117.168 25.6546C117.407 25.6546 117.615 25.638 117.794 25.6048C117.973 25.5717 118.113 25.5452 118.212 25.5253L118.749 27.9813C118.577 28.0476 118.331 28.1138 118.013 28.1801C117.695 28.253 117.297 28.2928 116.82 28.2994C116.038 28.3127 115.309 28.1735 114.632 27.8818C113.956 27.5902 113.409 27.1394 112.992 26.5296C112.574 25.9197 112.365 25.1541 112.365 24.2327V9.16877ZM125.06 19.0324V28.1006H122.087V7.73695H125.021V15.3137H125.209C125.567 14.4917 126.114 13.8387 126.85 13.3548C127.586 12.8709 128.547 12.629 129.734 12.629C130.781 12.629 131.696 12.8444 132.478 13.2753C133.267 13.7062 133.877 14.3492 134.307 15.2043C134.745 16.0528 134.964 17.1134 134.964 18.3861V28.1006H131.991V18.7441C131.991 17.6238 131.702 16.7554 131.126 16.1389C130.549 15.5158 129.747 15.2043 128.719 15.2043C128.017 15.2043 127.387 15.3534 126.83 15.6517C126.28 15.95 125.846 16.3875 125.528 16.9642C125.216 17.5343 125.06 18.2237 125.06 19.0324ZM146.301 28.1006V25.8733L153.192 18.7341C153.928 17.9585 154.534 17.2791 155.012 16.6958C155.496 16.1058 155.857 15.5457 156.095 15.0154C156.334 14.4851 156.453 13.9216 156.453 13.325C156.453 12.6489 156.294 12.0655 155.976 11.575C155.658 11.0779 155.224 10.6967 154.674 10.4316C154.123 10.1598 153.504 10.0239 152.814 10.0239C152.085 10.0239 151.449 10.173 150.905 10.4713C150.362 10.7696 149.944 11.1905 149.652 11.7341C149.361 12.2777 149.215 12.914 149.215 13.6432H146.282C146.282 12.4036 146.567 11.3198 147.137 10.3918C147.707 9.46375 148.489 8.74452 149.483 8.23411C150.478 7.71706 151.608 7.45854 152.874 7.45854C154.153 7.45854 155.28 7.71375 156.255 8.22416C157.236 8.72795 158.001 9.41735 158.551 10.2923C159.102 11.1607 159.377 12.1418 159.377 13.2355C159.377 13.9912 159.234 14.7303 158.949 15.4529C158.671 16.1754 158.184 16.9808 157.488 17.8691C156.792 18.7507 155.824 19.8212 154.584 21.0807L150.537 25.3165V25.4656H159.705V28.1006H146.301ZM170.563 28.4387C168.992 28.432 167.649 28.0177 166.536 27.1958C165.422 26.3738 164.57 25.1773 163.98 23.6063C163.39 22.0352 163.095 20.1427 163.095 17.9287C163.095 15.7213 163.39 13.8354 163.98 12.271C164.577 10.7066 165.432 9.51346 166.546 8.6915C167.666 7.86952 169.005 7.45854 170.563 7.45854C172.121 7.45854 173.456 7.87284 174.57 8.70144C175.684 9.52341 176.535 10.7166 177.125 12.281C177.722 13.8387 178.02 15.7213 178.02 17.9287C178.02 20.1494 177.725 22.0452 177.135 23.6162C176.545 25.1806 175.694 26.3771 174.58 27.2057C173.466 28.0277 172.127 28.4387 170.563 28.4387ZM170.563 25.7838C171.942 25.7838 173.019 25.111 173.794 23.7654C174.577 22.4197 174.968 20.4742 174.968 17.9287C174.968 16.2384 174.789 14.8099 174.431 13.6432C174.079 12.4699 173.572 11.5816 172.909 10.9784C172.253 10.3686 171.471 10.0637 170.563 10.0637C169.191 10.0637 168.113 10.7398 167.331 12.0921C166.549 13.4443 166.155 15.3899 166.148 17.9287C166.148 19.6257 166.324 21.0608 166.675 22.2341C167.033 23.4008 167.54 24.2857 168.196 24.8889C168.853 25.4855 169.641 25.7838 170.563 25.7838ZM181.548 28.1006V25.8733L188.438 18.7341C189.174 17.9585 189.781 17.2791 190.258 16.6958C190.742 16.1058 191.103 15.5457 191.342 15.0154C191.58 14.4851 191.7 13.9216 191.7 13.325C191.7 12.6489 191.54 12.0655 191.222 11.575C190.904 11.0779 190.47 10.6967 189.92 10.4316C189.37 10.1598 188.75 10.0239 188.06 10.0239C187.331 10.0239 186.695 10.173 186.151 10.4713C185.608 10.7696 185.19 11.1905 184.898 11.7341C184.607 12.2777 184.461 12.914 184.461 13.6432H181.528C181.528 12.4036 181.813 11.3198 182.383 10.3918C182.953 9.46375 183.735 8.74452 184.729 8.23411C185.724 7.71706 186.854 7.45854 188.12 7.45854C189.399 7.45854 190.526 7.71375 191.501 8.22416C192.482 8.72795 193.247 9.41735 193.798 10.2923C194.348 11.1607 194.623 12.1418 194.623 13.2355C194.623 13.9912 194.48 14.7303 194.195 15.4529C193.917 16.1754 193.43 16.9808 192.734 17.8691C192.038 18.7507 191.07 19.8212 189.83 21.0807L185.783 25.3165V25.4656H194.951V28.1006H181.548ZM197.854 24.1233V21.6375L206.654 7.73695H208.613V11.396H207.37L201.076 21.3591V21.5182H213.137V24.1233H197.854ZM207.509 28.1006V23.3676L207.529 22.2341V7.73695H210.442V28.1006H207.509ZM219.744 25.3165L219.595 26.4003C219.496 27.1958 219.327 28.0244 219.088 28.8861C218.856 29.7545 218.614 30.5599 218.362 31.3023C218.117 32.0447 217.915 32.6347 217.756 33.0722H215.648C215.734 32.6612 215.853 32.1044 216.006 31.4017C216.158 30.7057 216.307 29.9268 216.453 29.0651C216.599 28.2033 216.708 27.325 216.781 26.4301L216.881 25.3165H219.744ZM231.263 28.1006V7.73695H234.336V17.4614H234.584L243.126 7.73695H246.994L238.781 16.9046L247.023 28.1006H243.325L236.742 19.0026L234.336 21.7668V28.1006H231.263ZM255.08 28.4088C253.575 28.4088 252.279 28.0873 251.192 27.4443C250.112 26.7947 249.276 25.8833 248.686 24.71C248.103 23.53 247.811 22.1479 247.811 20.5637C247.811 18.9993 248.103 17.6205 248.686 16.4273C249.276 15.2341 250.098 14.3028 251.152 13.6333C252.213 12.9637 253.453 12.629 254.871 12.629C255.733 12.629 256.568 12.7715 257.377 13.0566C258.185 13.3416 258.911 13.789 259.554 14.3989C260.197 15.0087 260.704 15.8009 261.076 16.7753C261.447 17.7431 261.632 18.9197 261.632 20.3051V21.3591H249.492V19.1318H258.719C258.719 18.3496 258.56 17.6569 258.242 17.0537C257.924 16.4439 257.476 15.9633 256.899 15.6119C256.329 15.2606 255.66 15.085 254.891 15.085C254.056 15.085 253.327 15.2905 252.703 15.7014C252.087 16.1058 251.61 16.6361 251.272 17.2923C250.94 17.942 250.774 18.6479 250.774 19.4102V21.1503C250.774 22.1711 250.953 23.0395 251.311 23.7554C251.676 24.4713 252.183 25.0182 252.833 25.396C253.482 25.7673 254.241 25.9529 255.11 25.9529C255.673 25.9529 256.187 25.8733 256.651 25.7142C257.115 25.5485 257.516 25.3032 257.854 24.9784C258.192 24.6536 258.451 24.2526 258.63 23.7753L261.444 24.2824C261.218 25.111 260.814 25.8369 260.23 26.46C259.654 27.0764 258.928 27.557 258.053 27.9017C257.185 28.2398 256.194 28.4088 255.08 28.4088ZM267.904 19.0324V28.1006H264.931V12.8279H267.785V15.3137H267.974C268.325 14.5049 268.875 13.8553 269.624 13.3648C270.38 12.8743 271.331 12.629 272.478 12.629C273.519 12.629 274.43 12.8477 275.212 13.2852C275.995 13.7161 276.601 14.3591 277.032 15.2142C277.463 16.0693 277.678 17.1266 277.678 18.3861V28.1006H274.705V18.7441C274.705 17.637 274.417 16.772 273.84 16.1489C273.263 15.5191 272.471 15.2043 271.464 15.2043C270.774 15.2043 270.161 15.3534 269.624 15.6517C269.094 15.95 268.673 16.3875 268.361 16.9642C268.057 17.5343 267.904 18.2237 267.904 19.0324ZM282.998 33.8279C282.554 33.8279 282.149 33.7914 281.785 33.7185C281.42 33.6522 281.148 33.5793 280.969 33.4997L281.685 31.0637C282.229 31.2095 282.713 31.2725 283.137 31.2526C283.561 31.2327 283.936 31.0736 284.261 30.7753C284.592 30.477 284.884 29.9898 285.136 29.3137L285.504 28.2994L279.915 12.8279H283.097L286.965 24.6801H287.124L290.992 12.8279H294.184L287.89 30.1389C287.598 30.9344 287.227 31.6072 286.776 32.1574C286.325 32.7142 285.789 33.1318 285.165 33.4102C284.542 33.6887 283.82 33.8279 282.998 33.8279ZM300.985 28.4387C300.017 28.4387 299.142 28.2597 298.36 27.9017C297.578 27.5371 296.958 27.0102 296.501 26.3208C296.05 25.6314 295.825 24.7862 295.825 23.7852C295.825 22.9235 295.99 22.2142 296.322 21.6574C296.653 21.1006 297.101 20.6598 297.664 20.335C298.227 20.0102 298.857 19.7649 299.553 19.5992C300.249 19.4334 300.959 19.3075 301.681 19.2213C302.596 19.1153 303.338 19.0291 303.908 18.9628C304.478 18.8899 304.893 18.7739 305.151 18.6148C305.41 18.4557 305.539 18.1972 305.539 17.8392V17.7696C305.539 16.9012 305.294 16.2284 304.803 15.7512C304.319 15.2739 303.597 15.0352 302.636 15.0352C301.635 15.0352 300.846 15.2573 300.269 15.7014C299.699 16.1389 299.305 16.6262 299.086 17.1631L296.292 16.5267C296.623 15.5987 297.107 14.8496 297.744 14.2796C298.387 13.7029 299.126 13.2852 299.961 13.0267C300.796 12.7616 301.674 12.629 302.596 12.629C303.206 12.629 303.852 12.7019 304.535 12.8477C305.224 12.9869 305.867 13.2455 306.464 13.6233C307.067 14.0012 307.561 14.5414 307.945 15.2441C308.33 15.9401 308.522 16.8449 308.522 17.9585V28.1006H305.619V26.0125H305.499C305.307 26.397 305.019 26.7748 304.634 27.146C304.25 27.5173 303.756 27.8255 303.153 28.0708C302.549 28.316 301.827 28.4387 300.985 28.4387ZM301.631 26.0523C302.453 26.0523 303.156 25.8899 303.739 25.5651C304.329 25.2403 304.777 24.816 305.082 24.2923C305.393 23.762 305.549 23.1953 305.549 22.5921V20.6233C305.443 20.7294 305.237 20.8288 304.932 20.9216C304.634 21.0078 304.293 21.084 303.908 21.1503C303.524 21.21 303.149 21.2663 302.785 21.3193C302.42 21.3657 302.115 21.4055 301.87 21.4387C301.293 21.5116 300.766 21.6342 300.289 21.8066C299.818 21.9789 299.441 22.2275 299.156 22.5523C298.877 22.8705 298.738 23.2947 298.738 23.825C298.738 24.5608 299.01 25.1176 299.553 25.4955C300.097 25.8667 300.79 26.0523 301.631 26.0523Z" fill="black"/>
<path d="M368.875 178.961C354.403 178.961 345.023 169.38 345.023 155.578C345.023 141.307 354.738 131.525 369.411 131.525C377.183 131.525 381.337 134.272 382.61 134.272C383.414 134.272 383.682 133.669 383.95 132.128H386.563V146.667H383.816C382.141 138.024 377.25 134.272 369.411 134.272C358.49 134.272 351.589 141.977 351.589 155.377C351.589 168.174 358.155 176.214 369.143 176.214C377.25 176.214 381.002 173.467 381.002 168.71V163.819C381.002 159.598 379.93 158.995 371.287 158.727V156.315H391.119V158.727C387.501 158.928 386.563 160 386.563 164.958V173.601C382.811 176.348 377.518 178.961 368.875 178.961ZM424.782 170.653L426.591 171.189C425.854 175.745 424.648 178.693 420.36 178.693C417.278 178.693 414.933 176.817 414.665 172.529C412.655 176.75 409.104 178.961 405.352 178.961C400.662 178.961 397.446 176.214 397.446 171.792C397.446 167.102 400.863 164.69 406.759 162.747L414.665 160.201V156.985C414.665 151.29 412.119 148.811 407.362 148.811C404.883 148.811 402.471 149.682 400.93 150.687C401.332 153.635 404.012 154.104 404.012 156.784C404.012 158.794 402.404 160.335 400.327 160.335C397.915 160.335 396.374 158.459 396.374 155.779C396.374 150.218 403.141 145.461 409.305 145.461C415.268 145.461 419.556 148.543 419.556 156.181V171.323C419.556 174.003 420.293 174.74 421.7 174.74C423.308 174.74 424.112 173.534 424.782 170.653ZM407.295 174.874C409.841 174.874 412.588 173.266 414.665 169.38V162.814L408.97 164.824C405.017 166.231 402.739 167.571 402.739 170.653C402.739 173.333 404.414 174.874 407.295 174.874ZM449.379 171.658L450.652 172.864C448.039 176.817 445.694 178.693 441.942 178.693C436.984 178.693 434.103 175.477 434.103 169.983V150.687H428.006V148.342C432.897 147.739 435.711 145.327 436.515 140.637H438.994V146.265H448.575V150.687H438.994V168.911C438.994 172.529 440.736 174.472 443.55 174.472C445.761 174.472 447.57 173.601 449.379 171.658ZM483.409 156.583V171.39C483.409 175.142 484.012 175.879 488.032 176.214V178.023H473.694V176.214C477.915 175.879 478.518 175.276 478.518 171.39V157.722C478.518 152.63 476.173 149.95 471.952 149.95C468.803 149.95 466.257 151.357 463.577 154.506V171.524C463.577 175.343 464.247 175.879 468.2 176.214V178.023H453.862V176.214C457.614 175.879 458.686 175.343 458.686 171.524V138.493C458.686 135.009 457.949 134.339 453.862 134.339V132.798L462.103 130.453H463.577V151.893C465.922 147.739 469.339 145.461 473.694 145.461C479.791 145.461 483.409 149.414 483.409 156.583ZM519.013 158.727H497.439C497.372 159.397 497.372 160.067 497.372 160.804C497.372 168.777 501.593 173.4 507.824 173.4C512.246 173.4 515.395 171.122 516.802 167.638L518.678 168.174C517.204 175.075 513.787 178.961 506.886 178.961C498.176 178.961 492.682 172.663 492.682 162.68C492.682 152.362 498.243 145.461 506.953 145.461C514.792 145.461 519.08 150.62 519.013 158.727ZM506.417 147.94C502.397 147.94 499.047 150.754 497.841 156.181H513.519C513.519 151.558 511.576 147.94 506.417 147.94ZM542.702 145.461C545.248 145.461 547.191 147.203 547.191 149.615C547.191 152.027 545.449 153.702 543.439 153.702C540.893 153.702 540.893 151.022 538.95 150.218C537.208 151.826 535.131 154.975 533.456 160.335V171.39C533.456 175.276 534.193 175.879 539.486 176.214V178.023H523.741V176.214C527.828 175.879 528.565 175.075 528.565 171.39V153.903C528.565 150.084 527.761 149.414 523.741 149.414V147.873L531.781 145.863H533.456V156.114C535.131 151.089 538.682 145.461 542.702 145.461Z" fill="#231F20"/>
<path fill-rule="evenodd" clip-rule="evenodd" d="M58.5099 50.1136H0.869995V108.118H58.5099V87.8624H48.9423C45.6445 95.2531 38.2277 100.389 29.729 100.389C18.0238 100.389 8.53446 90.7692 8.53446 79.0639C8.53446 67.3587 18.0238 57.8172 29.729 57.8172C38.3842 57.8172 45.814 63.1354 49.1118 70.6825H58.5099V50.1006V50.1136ZM114.338 87.8754C110.962 95.2662 103.623 100.402 95.0464 100.402C83.6671 100.402 74.3472 91.2775 73.9301 79.8981H123.905V50.1006H66.2656V108.105H123.905V87.8494H114.338V87.8754ZM115.068 72.7681H74.8295C77.3843 63.2266 85.883 57.8302 95.0334 57.8302C104.184 57.8302 112.109 62.8877 115.068 72.7681ZM248.375 79.077C248.375 90.8604 238.977 100.402 227.258 100.402C215.54 100.402 206.142 90.7692 206.142 79.077C206.142 67.3847 215.54 57.8302 227.258 57.8302C238.977 57.8302 248.375 67.2935 248.375 79.077ZM256.117 50.1136H198.478V108.118H256.117V50.1136ZM181.702 87.8754H191.269V108.132H131.57V50.1267H141.294V79.09C141.294 92.0336 150.861 100.337 162.241 100.337C171.065 100.337 178.821 95.5269 181.702 87.8885V87.8754Z" fill="#231F20"/>
<path d="M301.57 87.1977C309.612 94.5102 319.832 99.4634 331.133 100.988V108.132H273.128V50.1267H283.634C284.364 61.0499 288.261 71.0867 294.427 79.3377L323.625 50.1267L331.12 57.6217L301.557 87.1977H301.57Z" fill="#231F20"/>
<path d="M223.713 144.955C215.67 137.642 205.451 132.689 194.15 131.164V124.021H252.155V182.026H241.649C240.919 171.103 237.021 161.066 230.856 152.815L201.658 182.026L194.163 174.531L223.726 144.955H223.713Z" fill="#231F20"/>
<path d="M291.807 152.476C284.494 160.518 279.541 170.738 278.016 182.039H270.873V124.034H328.878V134.54C317.955 135.27 307.918 139.167 299.667 145.333L328.878 174.531L321.383 182.026L291.807 152.463V152.476Z" fill="#231F20"/>
</svg>
